<svg xmlns="http://www.w3.org/2000/svg" viewBox="0 0 24 24"><path fill="#303c42" d="M22.491 11.135C17.525 8.324 7.604 2.865 2.463.115 1.794-.242 1 .285 1 .995V23c0 .551.449 1 1 1a.983.983 0 0 0 .463-.12c5.141-2.75 15.062-8.209 20.028-11.02a.996.996 0 0 0 .509-.863.996.996 0 0 0-.509-.862z"/><path fill="#4fc3f7" d="M2 22.957 1.991 1.029l10.812 10.968z"/><path fill="#f44336" d="m13.505 12.71 2.559 2.596a1580.663 1580.663 0 0 1-11.151 6.121l8.592-8.717z"/><path fill="#8bc34a" d="M4.921 2.577A1485.68 1485.68 0 0 1 16.064 8.69l-2.558 2.596-8.585-8.709z"/><path fill="#ffeb3b" d="m16.971 14.802-2.764-2.804 2.764-2.804a744.115 744.115 0 0 1 5.012 2.804 738.85 738.85 0 0 1-5.012 2.804z"/><linearGradient id="a" x1="-3.117" x2="19.331" y1="9.614" y2="20.082" gradientUnits="userSpaceOnUse"><stop offset="0" stop-color="#fff" stop-opacity=".2"/><stop offset="1" stop-color="#fff" stop-opacity="0"/></linearGradient><path fill="url(#a)" d="M22.491 11.135C17.525 8.324 7.604 2.865 2.463.115 1.794-.242 1 .285 1 .995V23c0 .551.449 1 1 1a.983.983 0 0 0 .463-.12c5.141-2.75 15.062-8.209 20.028-11.02a.996.996 0 0 0 .509-.863.996.996 0 0 0-.509-.862z"/></svg>